<?xml version="1.0" encoding="UTF-8"?>
<svg xmlns="http://www.w3.org/2000/svg" xmlns:xlink="http://www.w3.org/1999/xlink" viewBox="0 0 48 48" version="1.1" width="528px" height="528px">
<g id="surface1">
<path style=" fill:#4527A0;" d="M 31.425781 32.132813 C 37.476563 26.078125 38.902344 17.6875 34.605469 13.394531 C 30.308594 9.097656 21.921875 10.523438 15.867188 16.574219 C 9.816406 22.628906 8.390625 31.015625 12.6875 35.3125 C 16.980469 39.609375 25.371094 38.183594 31.425781 32.132813 Z "/>
<path style=" fill:#4527A0;" d="M 4.199219 32.484375 C 3.601563 28.933594 4.464844 25.199219 5.9375 21.867188 C 6.667969 20.183594 7.578125 18.585938 8.597656 17.058594 C 9.105469 16.292969 9.644531 15.546875 10.21875 14.816406 C 10.511719 14.449219 10.785156 14.097656 11.140625 13.714844 C 11.433594 13.390625 11.742188 13.058594 12.074219 12.714844 C 14.660156 10.078125 17.710938 7.703125 21.46875 6.335938 C 25.183594 4.914063 29.738281 5.046875 33.488281 6.976563 C 34.445313 7.46875 35.289063 7.972656 36.230469 8.792969 C 37.074219 9.589844 37.75 10.382813 38.367188 11.363281 C 39.609375 13.285156 40.132813 15.800781 39.875 18.058594 C 39.636719 20.332031 38.808594 22.339844 37.820313 24.105469 C 36.816406 25.878906 35.628906 27.441406 34.359375 28.890625 C 34.042969 29.25 33.71875 29.605469 33.390625 29.953125 L 32.855469 30.503906 C 32.675781 30.683594 32.492188 30.851563 32.308594 31.019531 C 31.574219 31.683594 30.8125 32.308594 29.988281 32.902344 C 29.160156 33.496094 28.28125 34.0625 27.234375 34.550781 C 26.179688 35.011719 24.96875 35.511719 23.203125 35.40625 C 22.339844 35.347656 21.324219 35.03125 20.515625 34.449219 C 20.3125 34.308594 20.121094 34.152344 19.949219 33.992188 L 19.820313 33.871094 C 19.707031 33.761719 19.648438 33.691406 19.601563 33.640625 C 19.507813 33.527344 19.429688 33.429688 19.359375 33.335938 C 19.082031 32.960938 18.882813 32.597656 18.710938 32.222656 C 18.019531 30.71875 18 29.066406 18.320313 27.726563 C 18.996094 25.035156 20.53125 23.292969 21.898438 21.863281 C 22.972656 20.804688 23.753906 19.632813 23.90625 18.871094 C 23.984375 18.503906 23.9375 18.296875 23.886719 18.1875 C 23.882813 18.164063 23.855469 18.136719 23.894531 18.1875 C 23.921875 18.210938 23.894531 18.195313 24.074219 18.375 L 23.972656 18.277344 C 24 18.308594 24.035156 18.335938 24.070313 18.359375 C 24.082031 18.371094 24.09375 18.378906 24.105469 18.382813 C 24.207031 18.449219 24.335938 18.46875 24.304688 18.457031 C 24.246094 18.425781 23.699219 18.519531 23.136719 18.789063 C 22.5625 19.050781 21.925781 19.433594 21.304688 19.871094 C 20.679688 20.308594 20.054688 20.808594 19.464844 21.324219 C 18.898438 21.824219 18.332031 22.390625 17.761719 22.988281 C 15.539063 25.328125 13.660156 28.0625 13.316406 30.625 C 13.140625 31.894531 13.367188 33.042969 13.976563 34.175781 C 14.128906 34.457031 14.308594 34.738281 14.511719 35.011719 C 14.613281 35.148438 14.71875 35.28125 14.832031 35.414063 L 15.121094 35.75 C 15.542969 36.164063 16.171875 36.625 16.785156 36.980469 C 18.046875 37.710938 19.464844 38.175781 20.9375 38.328125 C 22.410156 38.480469 23.941406 38.328125 25.460938 37.933594 C 28.515625 37.125 31.414063 35.285156 34.027344 33.097656 C 36.628906 30.96875 38.898438 28.230469 40.773438 25.347656 C 41.703125 23.886719 42.496094 22.335938 43.054688 20.691406 C 43.628906 19.050781 43.917969 17.296875 43.800781 15.511719 C 44.261719 17.242188 44.230469 19.113281 43.914063 20.910156 C 43.585938 22.710938 42.972656 24.453125 42.214844 26.121094 C 41.460938 27.796875 40.519531 29.375 39.488281 30.894531 C 38.972656 31.652344 38.429688 32.390625 37.855469 33.117188 C 37.566406 33.480469 37.285156 33.832031 36.945313 34.207031 C 36.636719 34.546875 36.328125 34.886719 36.007813 35.21875 C 33.433594 37.855469 30.390625 40.242188 26.648438 41.636719 C 22.941406 43.074219 18.386719 42.988281 14.617188 41.089844 C 13.664063 40.609375 12.792969 40.085938 11.882813 39.320313 L 11.671875 39.125 L 11.527344 38.984375 L 11.242188 38.699219 C 11.054688 38.507813 10.871094 38.304688 10.691406 38.097656 C 10.335938 37.679688 10 37.234375 9.695313 36.753906 C 8.433594 34.847656 7.871094 32.339844 8.105469 30.070313 C 8.320313 27.785156 9.132813 25.765625 10.117188 23.988281 C 11.109375 22.207031 12.296875 20.636719 13.558594 19.183594 C 14.191406 18.472656 14.84375 17.738281 15.605469 17.050781 C 16.335938 16.382813 17.089844 15.75 17.90625 15.152344 C 18.730469 14.550781 19.601563 13.980469 20.636719 13.480469 C 21.675781 13.007813 22.863281 12.5 24.597656 12.542969 C 25.453125 12.570313 26.46875 12.835938 27.316406 13.390625 L 27.625 13.601563 C 27.746094 13.695313 27.867188 13.796875 27.984375 13.898438 L 28.125 14.023438 C 28.390625 14.277344 28.433594 14.347656 28.527344 14.460938 C 28.84375 14.859375 29.050781 15.210938 29.238281 15.589844 C 29.976563 17.089844 30.035156 18.753906 29.738281 20.117188 C 29.441406 21.492188 28.859375 22.609375 28.234375 23.570313 C 27.601563 24.523438 26.882813 25.355469 26.175781 26.0625 C 25.59375 26.632813 25.160156 27.136719 24.785156 27.671875 C 24.421875 28.191406 24.179688 28.699219 24.089844 29.078125 C 23.992188 29.464844 24.035156 29.683594 24.082031 29.808594 C 24.09375 29.839844 24.109375 29.867188 24.097656 29.847656 L 24.0625 29.804688 L 23.949219 29.6875 L 23.902344 29.652344 C 23.816406 29.589844 23.675781 29.5625 23.691406 29.570313 C 23.71875 29.601563 24.257813 29.523438 24.8125 29.257813 C 25.382813 29.003906 26.015625 28.621094 26.636719 28.1875 C 27.261719 27.75 27.882813 27.253906 28.476563 26.734375 L 28.90625 26.347656 L 29.320313 25.957031 L 30.183594 25.082031 C 32.414063 22.746094 34.308594 20.015625 34.6875 17.445313 C 34.878906 16.171875 34.660156 15.015625 34.074219 13.878906 C 33.789063 13.328125 33.339844 12.726563 32.921875 12.269531 C 32.554688 11.890625 31.902344 11.398438 31.296875 11.046875 C 30.042969 10.308594 28.625 9.828125 27.152344 9.664063 C 25.679688 9.5 24.148438 9.640625 22.625 10.027344 C 19.570313 10.808594 16.660156 12.648438 14.046875 14.824219 C 11.433594 16.933594 9.214844 19.699219 7.382813 22.617188 C 5.589844 25.5625 4.265625 28.898438 4.199219 32.484375 Z "/>
<path style=" fill:#9575CD;" d="M 23.890625 26.261719 C 25.710938 24.902344 27.566406 23.203125 28.988281 21.441406 C 30.425781 19.699219 31.453125 17.617188 31.144531 16.25 C 31.078125 15.902344 30.945313 15.570313 30.71875 15.238281 C 30.609375 15.074219 30.46875 14.90625 30.324219 14.746094 C 30.066406 14.484375 29.976563 14.40625 29.761719 14.210938 C 29.007813 13.5625 28.183594 13.136719 27.273438 12.980469 C 25.457031 12.640625 23.246094 13.484375 21.265625 14.75 C 19.265625 16.003906 17.375 17.710938 15.589844 19.382813 C 13.867188 21.011719 12.410156 23.019531 11.464844 25.238281 C 10.511719 27.457031 10.117188 29.941406 10.574219 32.371094 C 11.015625 34.804688 12.296875 37.09375 14 39 C 12.085938 37.3125 10.472656 35.152344 9.679688 32.59375 C 8.871094 30.050781 8.960938 27.21875 9.726563 24.628906 C 10.484375 22.023438 11.820313 19.609375 13.570313 17.492188 C 15.355469 15.507813 17.214844 13.683594 19.449219 12.058594 C 20.566406 11.257813 21.78125 10.527344 23.164063 9.992188 C 24.539063 9.464844 26.121094 9.136719 27.761719 9.320313 C 29.402344 9.484375 30.972656 10.199219 32.207031 11.152344 C 32.484375 11.363281 32.882813 11.703125 33.078125 11.890625 C 33.390625 12.179688 33.679688 12.484375 33.949219 12.835938 C 34.492188 13.527344 34.929688 14.371094 35.160156 15.265625 C 35.640625 17.085938 35.304688 18.871094 34.765625 20.3125 C 34.214844 21.777344 33.457031 23.03125 32.636719 24.1875 C 30.957031 26.496094 29.109375 28.390625 26.9375 30.222656 C 25.882813 31.117188 24.300781 30.980469 23.410156 29.925781 C 22.519531 28.867188 22.65625 27.289063 23.710938 26.398438 C 23.746094 26.371094 23.78125 26.339844 23.820313 26.3125 Z "/>
<path style=" fill:#9575CD;" d="M 24.109375 21.738281 C 22.289063 23.097656 20.433594 24.796875 19.011719 26.558594 C 17.574219 28.300781 16.546875 30.382813 16.855469 31.75 C 16.921875 32.101563 17.054688 32.429688 17.28125 32.761719 C 17.390625 32.925781 17.53125 33.09375 17.679688 33.253906 C 17.933594 33.519531 18.023438 33.59375 18.238281 33.789063 C 18.996094 34.4375 19.820313 34.863281 20.726563 35.019531 C 22.542969 35.359375 24.753906 34.515625 26.734375 33.25 C 28.734375 31.996094 30.628906 30.289063 32.410156 28.617188 C 34.132813 26.988281 35.589844 24.980469 36.539063 22.761719 C 37.488281 20.542969 37.882813 18.058594 37.425781 15.628906 C 36.984375 13.195313 35.703125 10.90625 34 9 C 35.914063 10.6875 37.527344 12.847656 38.320313 15.40625 C 39.128906 17.949219 39.039063 20.777344 38.273438 23.371094 C 37.515625 25.976563 36.179688 28.390625 34.429688 30.507813 C 32.644531 32.492188 30.785156 34.316406 28.550781 35.941406 C 27.433594 36.742188 26.21875 37.472656 24.835938 38.007813 C 23.460938 38.535156 21.878906 38.863281 20.238281 38.679688 C 18.597656 38.515625 17.027344 37.800781 15.792969 36.847656 C 15.515625 36.636719 15.117188 36.296875 14.921875 36.113281 C 14.609375 35.824219 14.320313 35.515625 14.050781 35.164063 C 13.507813 34.472656 13.074219 33.628906 12.839844 32.734375 C 12.359375 30.914063 12.695313 29.128906 13.234375 27.6875 C 13.785156 26.222656 14.542969 24.96875 15.363281 23.8125 C 17.042969 21.503906 18.890625 19.609375 21.0625 17.777344 C 22.117188 16.882813 23.695313 17.019531 24.585938 18.074219 C 25.480469 19.132813 25.34375 20.710938 24.289063 21.601563 C 24.253906 21.628906 24.214844 21.660156 24.179688 21.6875 Z "/>
<path style=" fill:#EDE7F6;" d="M 24 17 C 24 17.550781 23.550781 18 23 18 C 22.449219 18 22 17.550781 22 17 C 22 16.449219 22.449219 16 23 16 C 23.550781 16 24 16.449219 24 17 Z "/>
<path style=" fill:#EDE7F6;" d="M 25.050781 22.449219 C 25.050781 23.28125 24.378906 23.949219 23.550781 23.949219 C 22.71875 23.949219 22.050781 23.28125 22.050781 22.449219 C 22.050781 21.621094 22.71875 20.949219 23.550781 20.949219 C 24.378906 20.949219 25.050781 21.621094 25.050781 22.449219 Z "/>
<path style=" fill:#EDE7F6;" d="M 20.050781 26.949219 C 20.050781 27.503906 19.601563 27.949219 19.050781 27.949219 C 18.496094 27.949219 18.050781 27.503906 18.050781 26.949219 C 18.050781 26.398438 18.496094 25.949219 19.050781 25.949219 C 19.601563 25.949219 20.050781 26.398438 20.050781 26.949219 Z "/>
<path style=" fill:#EDE7F6;" d="M 16 18.5 C 16 18.777344 15.777344 19 15.5 19 C 15.222656 19 15 18.777344 15 18.5 C 15 18.222656 15.222656 18 15.5 18 C 15.777344 18 16 18.222656 16 18.5 Z "/>
<path style=" fill:#EDE7F6;" d="M 32.050781 14.449219 C 32.050781 15.28125 31.378906 15.949219 30.550781 15.949219 C 29.71875 15.949219 29.050781 15.28125 29.050781 14.449219 C 29.050781 13.621094 29.71875 12.949219 30.550781 12.949219 C 31.378906 12.949219 32.050781 13.621094 32.050781 14.449219 Z "/>
<path style=" fill:#EDE7F6;" d="M 18.050781 32.449219 C 18.050781 32.726563 17.824219 32.949219 17.550781 32.949219 C 17.273438 32.949219 17.050781 32.726563 17.050781 32.449219 C 17.050781 32.175781 17.273438 31.949219 17.550781 31.949219 C 17.824219 31.949219 18.050781 32.175781 18.050781 32.449219 Z "/>
<path style=" fill:#EDE7F6;" d="M 28.050781 29.449219 C 28.050781 30.28125 27.378906 30.949219 26.550781 30.949219 C 25.71875 30.949219 25.050781 30.28125 25.050781 29.449219 C 25.050781 28.621094 25.71875 27.949219 26.550781 27.949219 C 27.378906 27.949219 28.050781 28.621094 28.050781 29.449219 Z "/>
</g>
</svg>
