<?xml version="1.0" encoding="UTF-8"?>
<svg xmlns="http://www.w3.org/2000/svg" xmlns:xlink="http://www.w3.org/1999/xlink" viewBox="0 0 48 48" version="1.1" width="528px" height="528px">
<g id="surface1">
<path style=" fill:#424242;" d="M 32 34 L 16 34 L 8 47 L 40 47 Z "/>
<path style=" fill:#7B1FA2;" d="M 16 32 L 32 32 L 32 47 L 16 47 Z "/>
<path style=" fill:#A0530E;" d="M 29 39 L 24 47 L 19 39 Z M 12 16 C 12 16 9.417969 15 8 15 C 6.582031 15 7 18 7 18 C 7 18 7.75 25.667969 9 26 L 10 27 Z M 37.941406 27 L 38.941406 26 C 40.191406 25.667969 40.941406 18 40.941406 18 C 40.941406 18 41.359375 15 39.941406 15 C 38.527344 15 35 16 35 16 Z "/>
<path style=" fill:#7A3A0F;" d="M 8.105469 17.355469 C 8.105469 17.355469 8.832031 15.917969 11 19 C 13.035156 21.898438 9 19 9 19 L 9 23 C 9 23 7.6875 17.855469 8.105469 17.355469 Z M 39.839844 17.355469 C 39.839844 17.355469 39.109375 15.917969 36.941406 19 C 34.90625 21.898438 38.941406 19 38.941406 19 L 38.941406 23 C 38.941406 23 40.253906 17.855469 39.839844 17.355469 Z "/>
<path style=" fill:#C16E14;" d="M 32.941406 4 C 30.722656 2.558594 26.996094 1 24 1 C 21.003906 1 17.21875 2.558594 15 4 C 11.972656 5.96875 10 8.34375 10 12 C 10 18.332031 10 21 10 21 C 10 21 10 23.917969 10 29 C 10 32.683594 14.824219 36.335938 17.429688 38.613281 C 18.453125 39.511719 19.769531 40 21.136719 40 L 27 40 C 28.363281 40 29.679688 39.511719 30.707031 38.613281 C 33.308594 36.335938 37.941406 32.6875 37.941406 29 C 37.941406 23.917969 37.941406 21 37.941406 21 C 37.941406 21 37.941406 18.332031 37.941406 12 C 37.941406 8.34375 35.972656 5.96875 32.941406 4 Z "/>
<path style=" fill:#A0530E;" d="M 19 30 L 29 30 L 29 32 L 19 32 Z "/>
<path style="fill:none;stroke-width:2;stroke-linecap:butt;stroke-linejoin:miter;stroke:#A0530E;stroke-opacity:1;stroke-miterlimit:10;" d="M 26 17 L 32 16 C 32 16 35 17.25 35 19 M 22 17 L 16 16 C 16 16 13 17.25 13 19 "/>
<path style=" fill:#424242;" d="M 34 20 C 34 18.34375 31.984375 17 29.5 17 C 27.015625 17 25 18.34375 25 20 C 25 21.65625 27.015625 23 29.5 23 C 31.984375 23 34 21.65625 34 20 Z "/>
<path style=" fill:#424242;" d="M 21 19 L 27 19 L 27 20 L 21 20 Z "/>
<path style=" fill:#424242;" d="M 23 20 C 23 18.34375 20.984375 17 18.5 17 C 16.015625 17 14 18.34375 14 20 C 14 21.65625 16.015625 23 18.5 23 C 20.984375 23 23 21.65625 23 20 Z "/>
<path style="fill:none;stroke-width:2;stroke-linecap:round;stroke-linejoin:miter;stroke:#B0BEC5;stroke-opacity:1;stroke-miterlimit:10;" d="M 30 19 C 30.53125 19 31.4375 19.28125 32 20 M 21 20 C 20.4375 19.28125 19.53125 19 19 19 "/>
</g>
</svg>
